<svg xmlns="http://www.w3.org/2000/svg" width="14" height="27" viewBox="0 0 14 27">
    <g fill="none" fill-rule="evenodd" stroke="#FFF" stroke-linecap="round" stroke-linejoin="round" stroke-width="1.25">
        <path d="M2.929.625V14.45M3.15 26.992h-.558a1.8 1.8 0 0 1-1.794-1.794v-8.835a1.8 1.8 0 0 1 1.794-1.794h.559c.987 0 1.794.807 1.794 1.794v8.835a1.8 1.8 0 0 1-1.794 1.794zM5.233.625v7.149A2.192 2.192 0 0 1 3.047 9.96h-.236A2.192 2.192 0 0 1 .625 7.774V.624M10.409 26.992H9.85a1.8 1.8 0 0 1-1.794-1.794v-8.835a1.8 1.8 0 0 1 1.794-1.794h.559c.987 0 1.794.807 1.794 1.794v8.835a1.8 1.8 0 0 1-1.794 1.794zM10.36 14.568H8.977V.625s4.148.118 4.148 4.726v4.61s0 4.607-2.765 4.607"/>
    </g>
</svg>
