<?xml version="1.0" encoding="UTF-8"?>
<svg width="14px" height="7px" viewBox="0 0 14 7" version="1.1" xmlns="http://www.w3.org/2000/svg" xmlns:xlink="http://www.w3.org/1999/xlink">
    <!-- Generator: Sketch 46.2 (44496) - http://www.bohemiancoding.com/sketch -->
    <title>dropdown</title>
    <desc>Created with Sketch.</desc>
    <defs>
        <path d="M7.70688832,0.294647477 L12.7022655,5.29311168 L12.7022655,5.29311168 C13.0926691,5.68375658 13.0924735,6.31692153 12.7018286,6.70732517 C12.51431,6.89472795 12.2600497,7 11.9949403,7 L2.00505972,7 L2.00505972,7 C1.45277497,7 1.00505972,6.55228475 1.00505972,6 C1.00505972,5.73489055 1.11033177,5.48063026 1.29773455,5.29311168 L6.29311168,0.294647477 L6.29267483,0.2942109 C6.68307847,-0.0964340054 7.31624342,-0.0966295884 7.70688832,0.293774053 C7.70703398,0.293919623 7.7071796,0.294065239 7.70732517,0.2942109 Z" id="path-1"></path>
    </defs>
    <g id="Symbols" stroke="none" stroke-width="1" fill="none" fill-rule="evenodd">
        <g id="dropdown">
            <g id="Triangle" transform="translate(7.000000, 3.500000) scale(1, -1) translate(-7.000000, -3.500000) ">
                <use fill="#4A4A4A" fill-rule="evenodd" xlink:href="#path-1"></use>
                <path stroke="#4A4A4A" stroke-width="1" d="M12.3486029,5.64655584 L6.99978158,0.294429053 L7.35388101,-0.0594516858 L7.70732517,0.2942109 L7.35366259,0.647655062 L7.35344416,0.647436638 C7.34757258,0.641568683 7.34159142,0.635877212 7.33550727,0.630362224 C7.14535955,0.458002403 6.85461966,0.458021916 6.66449634,0.63035861 C6.65833543,0.635943149 6.65228017,0.641708634 6.64633741,0.647655062 L6.29267483,0.2942109 L6.64611899,-0.0594516858 L7.00021842,0.294429053 L1.65139713,5.64655584 C1.55769575,5.74031513 1.50505972,5.86744527 1.50505972,6 C1.50505972,6.27614237 1.72891734,6.5 2.00505972,6.5 L11.9949403,6.5 C12.127495,6.5 12.2546251,6.44736397 12.3483844,6.35366259 C12.5437069,6.15846076 12.5438047,5.84187829 12.3486029,5.64655584 Z"></path>
            </g>
        </g>
    </g>
</svg>