<svg id="圖層_1" data-name="圖層 1" xmlns="http://www.w3.org/2000/svg" viewBox="0 0 100 100"><defs><style>.cls-1{fill:#fff;stroke:#009245;stroke-linecap:round;stroke-linejoin:round;stroke-width:2.5px;}.cls-2{fill:#009245;}</style></defs><title>mechef_logo</title><rect class="cls-1" x="23.62" y="68.29" width="52.76" height="6.79" rx="3.29" ry="3.29"/><path class="cls-1" d="M77.58,32.38c0,8.41-12.35,7.47-27.58,7.47s-27.58.95-27.58-7.47S34.77,16.13,50,16.13,77.58,24,77.58,32.38Z"/><rect class="cls-1" x="24.82" y="42" width="50.37" height="11.87" rx="5.11" ry="5.11"/><rect class="cls-1" x="24.82" y="54.72" width="50.37" height="11.03" rx="4.92" ry="4.92"/><path class="cls-1" d="M23.65,40.56a5.61,5.61,0,0,0,5.49,5.72A5.25,5.25,0,0,0,30.9,46a4.89,4.89,0,0,0,4.28,2.61,5,5,0,0,0,4.56-3.17,4.25,4.25,0,0,0,2.58.88,4.49,4.49,0,0,0,4.39-4.57H59a4.71,4.71,0,0,0-.16,1.14,4.49,4.49,0,0,0,4.39,4.57,4.38,4.38,0,0,0,4-2.68,3.16,3.16,0,0,0,1.5.39A3.37,3.37,0,0,0,72,41.71h.55a3.92,3.92,0,0,0,3.82-3.76H24.26A5.88,5.88,0,0,0,23.65,40.56Z"/><path class="cls-1" d="M76.35,55a5.61,5.61,0,0,1-5.49,5.72,5.25,5.25,0,0,1-1.76-.33A4.89,4.89,0,0,1,64.82,63a5,5,0,0,1-4.56-3.17,4.25,4.25,0,0,1-2.58.88,4.49,4.49,0,0,1-4.39-4.57H41a4.71,4.71,0,0,1,.16,1.14,4.49,4.49,0,0,1-4.39,4.57,4.38,4.38,0,0,1-4-2.68,3.16,3.16,0,0,1-1.5.39A3.37,3.37,0,0,1,28,56.13h-.55a3.92,3.92,0,0,1-3.82-3.76H75.74A5.88,5.88,0,0,1,76.35,55Z"/><path class="cls-1" d="M24.89,74.23H74.95a3.43,3.43,0,0,1,3.43,3.43v.46a5.44,5.44,0,0,1-5.44,5.44H27.06a5.44,5.44,0,0,1-5.44-5.44V77.5a3.27,3.27,0,0,1,3.27-3.27Z"/><circle class="cls-2" cx="57.56" cy="23.76" r="1.27"/><circle class="cls-2" cx="52.47" cy="23.76" r="1.27" transform="translate(0.52 48.65) rotate(-49.96)"/><circle class="cls-2" cx="62.65" cy="23.76" r="1.27" transform="translate(4.15 56.44) rotate(-49.96)"/><circle class="cls-2" cx="42.44" cy="23.76" r="1.27"/><circle class="cls-2" cx="37.35" cy="23.76" r="1.27" transform="translate(-4.87 37.08) rotate(-49.96)"/><circle class="cls-2" cx="47.53" cy="23.76" r="1.27" transform="translate(-1.24 44.87) rotate(-49.96)"/><path class="cls-1" d="M75.38,65.75H24.62a1.7,1.7,0,0,0,0,3.39h34a1.76,1.76,0,0,0-.06.42,1.65,1.65,0,0,0,1.6,1.7h1.75a1.56,1.56,0,0,0-.15.66v.37a1.47,1.47,0,0,0,1.42,1.51h.75a2.21,2.21,0,0,0-.17.85v1.7a2,2,0,1,0,4,0v-1.7a2.21,2.21,0,0,0-.17-.85h.35a1.47,1.47,0,0,0,1.42-1.51v-.37a1.56,1.56,0,0,0-.15-.66h1.35a1.65,1.65,0,0,0,1.6-1.7,1.76,1.76,0,0,0-.06-.42h3.31a1.7,1.7,0,0,0,0-3.39Z"/></svg>