<?xml version="1.0" encoding="utf-8"?>
<!-- Generator: Adobe Illustrator 21.0.2, SVG Export Plug-In . SVG Version: 6.00 Build 0)  -->
<svg version="1.1" id="圖層_1" xmlns="http://www.w3.org/2000/svg" xmlns:xlink="http://www.w3.org/1999/xlink" x="0px" y="0px"
	 viewBox="0 0 353.7 194.5" style="enable-background:new 0 0 353.7 194.5;" xml:space="preserve">
<style type="text/css">
	.st0{fill:#CCCCCC;}
	.st1{fill:#8CC63F;}
	.st2{fill:#009245;}
	.st3{fill:#333333;}
	.st4{fill:#FFFFFF;}
	.st5{fill:#1A1A1A;}
	.st6{fill:#3F9F40;}
</style>
<g>
	<path class="st4" d="M33,0c-2,0-3.7,1.6-3.7,3.7v47.7c0,4.8-3.1,8.8-7.3,10.3V3.7c0-2-1.6-3.7-3.7-3.7s-3.7,1.6-3.7,3.7v58.1
		c-4.3-1.5-7.3-5.6-7.3-10.3V3.7c0-2-1.6-3.7-3.7-3.7S0,1.6,0,3.7v47.7c0,8.9,6.3,16.3,14.7,18V101c-6.3,1.6-11,7.3-11,14.2v64.6
		c0,8.1,6.6,14.7,14.7,14.7S33,187.9,33,179.8v-64.6c0-6.8-4.7-12.5-11-14.2V69.4c8.4-1.7,14.7-9.1,14.7-18V3.7
		C36.7,1.6,35.1,0,33,0z M25.7,115.2v64.6c0,4.1-3.3,7.3-7.3,7.3s-7.3-3.3-7.3-7.3v-64.6c0-4.1,3.3-7.3,7.3-7.3
		S25.7,111.1,25.7,115.2z"/>
	<path class="st4" d="M74.9,6.2C70.7,2,64.8,0,56.8,0c-2,0-3.7,1.6-3.7,3.7v100.5c0,0.4,0.1,0.8,0.2,1.1c-2.4,2.6-3.9,6.1-3.9,9.9
		v64.6c0,8.1,6.6,14.7,14.7,14.7s14.7-6.6,14.7-14.7v-64.6c0-4.7-2.3-8.9-5.7-11.5c9.4-12.1,9.4-24.1,9.4-50.2l0-8.1
		C82.6,27.8,82.7,14,74.9,6.2z M71.5,179.8c0,4.1-3.3,7.3-7.3,7.3s-7.3-3.3-7.3-7.3v-64.6c0-4.1,3.3-7.3,7.3-7.3s7.3,3.3,7.3,7.3
		V179.8z M75.1,45.3l0,8.1c0,25.8,0,37.1-9.1,47.2c-0.6-0.1-1.2-0.2-1.9-0.2c-1.3,0-2.5,0.2-3.7,0.5V7.6c4.1,0.5,7.1,1.7,9.2,3.8
		C75.3,17,75.2,29.5,75.1,45.3z"/>
</g>
<g>
	<path class="st4" d="M193.2,6.9c0.8,0.8,1.2,1.9,1.2,3.2v66.1c0,1.3-0.4,2.3-1.2,3c-0.8,0.8-1.9,1.1-3.2,1.1
		c-1.4,0-2.4-0.4-3.1-1.1c-0.7-0.8-1-1.8-1-3V22.9l-25.2,43.5c-1.1,2-2.7,3-4.8,3c-2,0-3.6-1-4.8-3l-25.3-42.9v52.9
		c0,1.3-0.4,2.3-1.1,3c-0.7,0.8-1.8,1.1-3.2,1.1s-2.5-0.4-3.2-1.1c-0.8-0.8-1.2-1.8-1.2-3V10.1c0-1.3,0.4-2.4,1.3-3.2
		c0.9-0.8,2-1.2,3.5-1.2c1.9,0,3.5,1,4.6,3L156,59.6l29.1-50.9c0.6-1.1,1.3-1.9,2-2.4c0.7-0.5,1.6-0.7,2.6-0.7
		C191.2,5.7,192.4,6.1,193.2,6.9z"/>
	<path class="st4" d="M259.4,69c0.6,0.6,0.9,1.4,0.9,2.4c0,1.7-1.4,3.3-4.1,4.8c-2.8,1.5-5.7,2.6-8.8,3.3c-3.1,0.7-6.1,1.1-9.1,1.1
		c-8.7,0-15.7-2.3-20.7-7c-5.1-4.7-7.6-11.1-7.6-19.3c0-5.2,1.1-9.8,3.4-13.8c2.2-4,5.4-7.1,9.5-9.4c4.1-2.2,8.7-3.3,13.9-3.3
		c7.4,0,13.2,2.2,17.5,6.5c4.3,4.3,6.5,10.2,6.5,17.6c0,1.4-0.3,2.4-0.9,3c-0.6,0.6-1.6,0.9-3,0.9h-37.4c0.7,12,7,18,18.9,18
		c3,0,5.6-0.4,7.8-1.1c2.2-0.7,4.5-1.7,7-3c2-1,3.4-1.6,4.1-1.6C258.1,68.1,258.8,68.4,259.4,69z M225,38.5c-3,2.8-4.7,6.7-5.3,11.8
		h32.8c-0.2-5.2-1.6-9.1-4.3-11.9c-2.7-2.8-6.5-4.1-11.4-4.1C231.9,34.3,228,35.7,225,38.5z"/>
	<path class="st4" d="M131.7,184.2c-5.6-3-10-7.4-13.1-13.1c-3.1-5.7-4.6-12.4-4.6-20.1c0-7.7,1.5-14.3,4.6-20
		c3.1-5.7,7.4-10,13.1-13.1c5.6-3,12.3-4.5,20.1-4.5c5.2,0,10.1,0.7,14.7,2.2c4.6,1.5,8.6,3.6,12,6.4c1.2,1,1.9,2.3,1.9,3.7
		c0,1-0.3,1.8-0.9,2.6c-0.6,0.7-1.4,1.1-2.2,1.1c-0.9,0-2.1-0.4-3.4-1.1c-3.9-2.8-7.5-4.7-10.7-5.9c-3.2-1.1-6.9-1.7-11.1-1.7
		c-9,0-15.9,2.6-20.7,7.9c-4.8,5.3-7.3,12.7-7.3,22.4c0,9.8,2.4,17.3,7.3,22.5c4.8,5.3,11.7,7.9,20.7,7.9c4.1,0,7.8-0.6,11-1.7
		c3.2-1.1,6.8-3.1,10.8-5.8c1.3-0.8,2.4-1.1,3.4-1.1c0.9,0,1.6,0.3,2.2,1c0.6,0.7,0.9,1.6,0.9,2.6c0,1.4-0.6,2.6-1.9,3.7
		c-3.4,2.8-7.4,4.9-12,6.4c-4.6,1.5-9.5,2.2-14.7,2.2C144.1,188.7,137.4,187.2,131.7,184.2z"/>
	<path class="st4" d="M238.1,140.8c3.4,3.4,5.1,8.4,5.1,15.1v28.3c0,1.3-0.4,2.4-1.3,3.1c-0.9,0.7-2,1.1-3.4,1.1
		c-1.5,0-2.6-0.4-3.5-1.1c-0.9-0.7-1.3-1.8-1.3-3.1v-28.1c0-4.5-1-7.9-3.1-10c-2.1-2.2-5.3-3.2-9.8-3.2c-5.2,0-9.3,1.4-12.4,4.3
		c-3.1,2.9-4.6,6.7-4.6,11.6v25.5c0,1.3-0.4,2.4-1.2,3.1c-0.8,0.7-2,1.1-3.4,1.1c-1.5,0-2.6-0.4-3.5-1.1c-0.9-0.7-1.3-1.8-1.3-3.1
		v-66.4c0-1.2,0.4-2.2,1.3-2.9c0.9-0.8,2-1.1,3.4-1.1c1.5,0,2.6,0.4,3.4,1.1s1.2,1.7,1.2,3v27.4c1.9-3.1,4.4-5.4,7.8-7
		c3.3-1.6,7.1-2.4,11.4-2.4C229.6,135.8,234.6,137.5,238.1,140.8z"/>
	<path class="st4" d="M306.4,177c0.6,0.6,0.9,1.4,0.9,2.4c0,1.7-1.4,3.3-4.1,4.8c-2.8,1.5-5.7,2.6-8.8,3.3c-3.1,0.7-6.1,1.1-9.1,1.1
		c-8.7,0-15.7-2.3-20.7-7c-5.1-4.7-7.6-11.1-7.6-19.3c0-5.2,1.1-9.8,3.4-13.8c2.2-4,5.4-7.1,9.5-9.3c4.1-2.2,8.7-3.3,13.9-3.3
		c7.4,0,13.2,2.2,17.5,6.5c4.3,4.3,6.5,10.2,6.5,17.6c0,1.4-0.3,2.4-0.9,3c-0.6,0.6-1.6,0.9-3,0.9h-37.4c0.7,12,7,18,18.9,18
		c3,0,5.6-0.4,7.8-1.1c2.2-0.7,4.5-1.7,7-3c2-1,3.4-1.6,4.1-1.6C305.1,176.1,305.8,176.4,306.4,177z M272,146.5
		c-3,2.8-4.7,6.7-5.3,11.8h32.8c-0.2-5.2-1.6-9.1-4.3-11.9c-2.7-2.8-6.5-4.1-11.4-4.1C278.9,142.3,275,143.7,272,146.5z"/>
	<path class="st4" d="M337.3,124.4c-2.1,2.1-3.1,5.1-3.1,9.2v3.3H347c1.3,0,2.3,0.3,3,0.9c0.7,0.6,1,1.5,1,2.5s-0.3,1.8-1,2.4
		c-0.7,0.6-1.7,0.8-3,0.8h-12.9v40.5c0,1.3-0.4,2.4-1.3,3.1c-0.9,0.7-2,1.1-3.3,1.1c-1.4,0-2.5-0.4-3.4-1.1
		c-0.9-0.7-1.3-1.8-1.3-3.1v-40.5H317c-1.3,0-2.3-0.3-3.1-0.9c-0.7-0.6-1.1-1.4-1.1-2.4c0-1,0.4-1.9,1.1-2.5
		c0.7-0.6,1.8-0.9,3.1-0.9h7.8v-1.9c0-6.3,1.7-11.2,5.2-14.8c3.5-3.6,8.5-5.6,15-6l3-0.2c2-0.1,3.5,0,4.4,0.5
		c0.9,0.5,1.3,1.4,1.3,2.6c0,2-1.4,3.2-4.1,3.4l-3,0.2C342.5,121.2,339.4,122.4,337.3,124.4z"/>
</g>
</svg>
